<mxfile host="app.diagrams.net" modified="2020-12-02T13:14:34.705Z" agent="5.0 (X11; Linux x86_64) AppleWebKit/537.36 (KHTML, like Gecko) Chrome/86.0.4240.198 Safari/537.36" etag="tUFUH97QbLKY_dJfnhit" version="13.10.5" type="github">
  <diagram id="I8jnYsZwrvLBVSbBfpzr" name="Page-1">
    <mxGraphModel dx="820" dy="494" grid="1" gridSize="10" guides="1" tooltips="1" connect="1" arrows="1" fold="1" page="1" pageScale="1" pageWidth="827" pageHeight="1169" math="0" shadow="0">
      <root>
        <mxCell id="0" />
        <mxCell id="1" parent="0" />
        <mxCell id="W2XtZndzO1DikeksaCja-4" style="edgeStyle=orthogonalEdgeStyle;rounded=0;orthogonalLoop=1;jettySize=auto;html=1;entryX=0;entryY=0.5;entryDx=0;entryDy=0;" edge="1" parent="1" source="W2XtZndzO1DikeksaCja-1" target="W2XtZndzO1DikeksaCja-2">
          <mxGeometry relative="1" as="geometry" />
        </mxCell>
        <mxCell id="W2XtZndzO1DikeksaCja-1" value="User Register" style="rounded=1;whiteSpace=wrap;html=1;" vertex="1" parent="1">
          <mxGeometry x="30" y="40" width="120" height="60" as="geometry" />
        </mxCell>
        <mxCell id="W2XtZndzO1DikeksaCja-5" style="edgeStyle=orthogonalEdgeStyle;rounded=0;orthogonalLoop=1;jettySize=auto;html=1;entryX=0;entryY=0.5;entryDx=0;entryDy=0;" edge="1" parent="1" source="W2XtZndzO1DikeksaCja-2" target="W2XtZndzO1DikeksaCja-3">
          <mxGeometry relative="1" as="geometry" />
        </mxCell>
        <mxCell id="W2XtZndzO1DikeksaCja-2" value="Pilih TUK" style="rounded=1;whiteSpace=wrap;html=1;" vertex="1" parent="1">
          <mxGeometry x="190" y="40" width="120" height="60" as="geometry" />
        </mxCell>
        <mxCell id="W2XtZndzO1DikeksaCja-3" value="Pilih&amp;nbsp;" style="rounded=1;whiteSpace=wrap;html=1;" vertex="1" parent="1">
          <mxGeometry x="353.5" y="40" width="120" height="60" as="geometry" />
        </mxCell>
      </root>
    </mxGraphModel>
  </diagram>
</mxfile>
